<svg width="173" height="202" viewBox="0 0 173 202" fill="none" xmlns="http://www.w3.org/2000/svg">
<path d="M170.365 151.489C171.719 149.058 172.56 146.318 172.56 143.858V58.4608C172.56 56.0005 171.719 53.2615 170.365 50.83L86.28 101.16L170.365 151.489Z" fill="#7F3A86"/>
<path d="M93.754 199.974L165.09 157.276C167.145 156.046 169.013 153.922 170.367 151.49L86.2822 101.16L2.19769 151.49C3.55171 153.922 5.41996 156.046 7.47436 157.276L78.8103 199.974C82.9194 202.435 89.6449 202.435 93.754 199.974Z" fill="#662579"/>
<path d="M170.365 50.8297C169.011 48.3976 167.142 46.2736 165.088 45.0436L93.7518 2.3451C89.6428 -0.115033 82.9172 -0.115033 78.8082 2.3451L7.47199 45.0436C3.36212 47.5031 0 53.5413 0 58.4607V143.859C0 146.318 0.840797 149.058 2.19532 151.49L86.28 101.16L170.365 50.8297Z" fill="#9A5196"/>
<path d="M86.5568 158.68C54.6879 158.68 28.76 132.877 28.76 101.16C28.76 69.4435 54.6879 43.64 86.5568 43.64C106.741 43.64 125.591 54.2502 136.028 71.4063L111.276 86.2515C106.047 77.6918 96.6329 72.4 86.5568 72.4C70.6216 72.4 57.6588 85.3017 57.6588 101.16C57.6588 117.018 70.6216 129.92 86.5568 129.92C96.6063 129.92 105.996 124.658 111.234 116.138L136.038 130.897C125.604 148.063 106.748 158.68 86.5568 158.68Z" fill="white"/>
<path fill-rule="evenodd" clip-rule="evenodd" d="M150.991 79.59V86.7613H136.609V79.59H129.421V86.7613H122.23V93.97H129.421V108.313H122.23V115.54H129.421V122.73H136.609L136.61 115.54H150.991V122.73H158.179V115.54H165.37V108.35H158.179V93.97H165.37V86.7613H158.179V79.59H150.991ZM150.991 108.35V93.97H136.609V108.313L150.991 108.35Z" fill="white"/>
</svg>
