<svg width="92" height="98" viewBox="0 0 92 98" fill="none" xmlns="http://www.w3.org/2000/svg">
<path d="M16.2891 3.81651H76.2709C80.4448 3.81651 84.4477 5.47456 87.399 8.4259C90.3503 11.3773 92.0084 15.3801 92.0084 19.554V45.9729C88.9023 44.3681 82.1035 42.6598 72.0432 42.6598C68.1899 42.6435 64.3413 42.932 60.5335 43.5226C53.7518 44.6442 50.1799 46.5769 50.1799 47.7675V92.6331C50.1799 93.3751 51.198 94.3587 53.1306 95.3251H16.2891C12.1152 95.3251 8.11235 93.667 5.161 90.7157C2.20965 87.7643 0.551599 83.7614 0.551599 79.5876V19.5712C0.549332 17.5031 0.954721 15.4548 1.74459 13.5435C2.53445 11.6321 3.69331 9.89519 5.15489 8.432C6.61648 6.96882 8.35213 5.80806 10.2626 5.0161C12.1731 4.22414 14.2209 3.8165 16.2891 3.81651Z" fill="#19486F"/>
<path d="M16.2891 0.0374451H76.2709C80.4448 0.0374451 84.4477 1.6955 87.399 4.64684C90.3503 7.59819 92.0084 11.6011 92.0084 15.7749V42.1766C88.9023 40.5718 82.1035 38.8634 72.0432 38.8634C68.1899 38.8472 64.3413 39.1357 60.5335 39.7262C53.7518 40.8479 50.1799 42.7806 50.1799 43.9712V88.8368C50.1799 89.5788 51.198 90.5624 53.1306 91.5288H16.2891C14.2224 91.5288 12.176 91.1217 10.2666 90.3308C8.35724 89.5399 6.62236 88.3807 5.161 86.9194C3.69964 85.458 2.54043 83.7231 1.74955 81.8138C0.958665 79.9044 0.551601 77.858 0.551601 75.7913V15.7749C0.551601 11.6011 2.20965 7.59819 5.161 4.64684C8.11235 1.6955 12.1152 0.0374451 16.2891 0.0374451Z" fill="#2E73B8"/>
<path d="M73.6308 50.9081C70.3956 50.8944 67.1644 51.1367 63.9674 51.6329C61.0695 51.8215 58.1598 51.5655 55.3394 50.8736V55.1876C55.3394 56.1885 58.3592 57.8105 63.9674 58.7251C67.163 59.2332 70.3951 59.4756 73.6308 59.4499C85.5374 59.4499 92.0084 56.6371 92.0084 55.1876V50.8736L73.6308 50.9081Z" fill="#19486F"/>
<path d="M54.908 63.574V93.0818C54.908 94.5831 60.0848 97.344 72.3711 97.344C77.4823 97.4683 82.5864 96.8877 87.5391 95.6184C89.9895 94.8246 91.7323 93.8928 91.9221 93.2544V63.9192C88.3329 66.1452 80.93 67.3704 73.579 67.3704H73.0958H70.8353H70.5247L68.7128 67.0597H67.781L66.3315 66.939L65.5549 66.8182L64.0019 66.6111C60.8008 66.2048 57.7109 65.1729 54.908 63.574Z" fill="#19486F"/>
<path d="M73.6308 46.6114C70.3956 46.5976 67.1644 46.84 63.9674 47.3361C58.2729 48.2852 55.3394 49.9073 55.3394 50.8909C55.3394 51.8745 58.3592 53.5138 63.9674 54.4284C67.163 54.9365 70.3951 55.1789 73.6308 55.1531C85.5374 55.1531 92.0084 52.3404 92.0084 50.8909C92.0084 49.4414 85.5374 46.6114 73.6308 46.6114Z" fill="#2E73B8"/>
<path d="M54.908 59.26V88.7678C54.908 90.2691 60.0848 93.03 72.3711 93.03C77.4823 93.1543 82.5864 92.5736 87.5391 91.3044C89.9895 90.5106 91.7323 89.5788 91.9221 88.9404V59.6052C88.3329 61.8312 80.93 63.0564 73.579 63.0564H73.0958H70.8353H70.5247L68.7128 62.7457H67.781L66.3315 62.4869H65.5549L64.0019 62.2798C60.802 61.8789 57.7121 60.8528 54.908 59.26Z" fill="#2E73B8"/>
<path d="M16.2891 91.4942H53.0961V95.2733H16.2891C12.1152 95.2733 8.11235 93.6153 5.161 90.6639C2.20965 87.7126 0.551599 83.7097 0.551599 79.5358V75.7395C0.549332 77.8076 0.954721 79.8559 1.74459 81.7673C2.53445 83.6786 3.69331 85.4156 5.15489 86.8787C6.61648 88.3419 8.35213 89.5027 10.2626 90.2946C12.1731 91.0866 14.2209 91.4942 16.2891 91.4942Z" fill="#19486F"/>
<path d="M11.3884 10.8569H16.7377L19.2916 23.4711L21.8628 10.8569H27.2984V28.7169H23.9335V14.4635L20.7584 28.7169H17.9111L14.736 14.4635V28.7169H11.3884V10.8569Z" fill="white"/>
<path d="M32.0783 23.1432V23.6609C32.0783 25.3865 32.5615 26.4046 34.4596 26.4046C34.7515 26.4202 35.0433 26.3733 35.3155 26.2671C35.5878 26.1609 35.8342 25.9979 36.0384 25.7888C36.2426 25.5797 36.3998 25.3294 36.4995 25.0547C36.5992 24.78 36.6392 24.4872 36.6166 24.1958C36.6166 22.5738 35.7884 21.9698 33.407 21.1415C30.1974 20.0371 28.7307 18.7084 28.7307 15.7404C28.7307 12.2892 30.8531 10.5636 34.2526 10.5636C37.652 10.5636 39.7745 11.9441 39.7745 15.3608V15.8957H36.3233C36.3233 14.1701 35.7538 13.2383 34.3734 13.2383C34.094 13.2044 33.8107 13.2348 33.5449 13.3271C33.2791 13.4195 33.038 13.5713 32.8399 13.7711C32.6417 13.9709 32.4919 14.2133 32.4018 14.4798C32.3117 14.7464 32.2837 15.03 32.3199 15.309C32.3199 16.4134 32.6478 17.0346 34.1663 17.7421L36.9445 18.95C39.6537 20.1234 40.3957 21.5039 40.3957 23.6782C40.3957 27.4572 38.1007 29.1483 34.2008 29.1483C30.3009 29.1483 28.5236 27.2502 28.5236 23.9715V23.1432H32.0783Z" fill="white"/>
<path d="M49.7312 23.1432V23.6609C49.7312 25.3865 50.2144 26.4046 52.1125 26.4046C52.4044 26.4202 52.6961 26.3733 52.9684 26.2671C53.2407 26.1609 53.4871 25.9979 53.6913 25.7888C53.8955 25.5797 54.0527 25.3294 54.1524 25.0547C54.2521 24.78 54.292 24.4872 54.2695 24.1958C54.2695 22.5738 53.4412 21.9698 51.0599 21.1415C47.8503 20.0371 46.3835 18.7084 46.3835 15.7404C46.3835 12.2892 48.506 10.5636 51.9055 10.5636C55.3049 10.5636 57.4274 11.9441 57.4274 15.3608V15.8957H53.9762C53.9762 14.1701 53.4067 13.2383 52.0262 13.2383C51.7469 13.2044 51.4636 13.2348 51.1978 13.3271C50.932 13.4195 50.6909 13.5713 50.4928 13.7711C50.2946 13.9709 50.1448 14.2133 50.0547 14.4798C49.9646 14.7464 49.9365 15.03 49.9728 15.309C49.9728 16.4134 50.3006 17.0346 51.8192 17.7421L54.5974 18.95C57.3066 20.1234 58.0486 21.5039 58.0486 23.6782C58.0486 27.4572 55.7535 29.1483 51.8537 29.1483C47.9538 29.1483 46.1765 27.2502 46.1765 23.9715V23.1432H49.7312Z" fill="white"/>
<path d="M69.5756 30.9257L67.4531 28.7169C67.0975 28.8534 66.7267 28.9461 66.3487 28.993C65.9235 29.0213 65.497 29.0213 65.0718 28.993C59.6706 28.993 58.9977 25.1449 58.9977 19.7093C58.9977 14.2736 59.6706 10.4256 65.0718 10.4256C70.4729 10.4256 71.1459 14.2736 71.1459 19.7093C71.3917 22.2076 70.9124 24.7238 69.7654 26.9568L71.6981 28.9067L69.5756 30.9257ZM65.0718 26.4219C67.1943 26.4219 67.5394 24.5927 67.5394 19.7956C67.5394 14.9984 67.1943 13.1693 65.0718 13.1693C62.9493 13.1693 62.5869 15.0156 62.5869 19.7956C62.5869 24.5755 62.9493 26.4219 65.0718 26.4219Z" fill="white"/>
<path d="M72.7162 28.7169V10.8569H76.3227V25.7661H82.7074V28.7169H72.7162Z" fill="white"/>
<path d="M63.536 65.9381H69.1787L73.1821 82.7282L77.2545 65.9381H82.7764V88.6642H79.3252V69.8207L74.7179 88.6642H71.6636L67.108 69.8207V88.6642H63.536V65.9381Z" fill="white"/>
</svg>
