<svg width="173" height="185" viewBox="0 0 173 185" fill="none" xmlns="http://www.w3.org/2000/svg">
<path d="M29.6934 7.63031H142.867C150.742 7.63031 158.294 10.7587 163.863 16.3273C169.432 21.8959 172.56 29.4485 172.56 37.3236V87.1707C166.699 84.1428 153.871 80.9195 134.89 80.9195C127.619 80.8887 120.358 81.433 113.173 82.5474C100.378 84.6637 93.6382 88.3102 93.6382 90.5568V175.209C93.6382 176.609 95.5592 178.465 99.2057 180.288H29.6934C21.8182 180.288 14.2656 177.16 8.697 171.591C3.12841 166.022 1.78516e-05 158.47 1.78516e-05 150.595V37.3562C-0.00426079 33.4541 0.760625 29.5894 2.25094 25.9831C3.74125 22.3767 5.92777 19.0995 8.68548 16.3388C11.4432 13.5781 14.718 11.388 18.3227 9.89369C21.9274 8.39942 25.7912 7.63031 29.6934 7.63031Z" fill="#19486F"/>
<path d="M29.6933 0.5H142.867C150.742 0.5 158.294 3.6284 163.863 9.19698C169.432 14.7656 172.56 22.3182 172.56 30.1933V80.0078C166.699 76.9799 153.871 73.7566 134.89 73.7566C127.619 73.7259 120.358 74.2702 113.173 75.3845C100.378 77.5008 93.6382 81.1474 93.6382 83.3939V168.046C93.6382 169.446 95.5592 171.302 99.2057 173.125H29.6933C25.794 173.125 21.9328 172.357 18.3302 170.865C14.7276 169.373 11.4543 167.185 8.69698 164.428C5.9397 161.671 3.75251 158.397 2.26028 154.795C0.76805 151.192 5.72205e-06 147.331 5.72205e-06 143.432V30.1933C5.72205e-06 22.3182 3.1284 14.7656 8.69698 9.19698C14.2656 3.6284 21.8182 0.5 29.6933 0.5Z" fill="#2E73B8"/>
<path d="M137.885 96.4824C131.781 96.4565 125.684 96.9137 119.652 97.8499C114.185 98.2058 108.695 97.7227 103.373 96.4173V104.557C103.373 106.445 109.071 109.506 119.652 111.231C125.682 112.19 131.78 112.648 137.885 112.599C160.351 112.599 172.56 107.292 172.56 104.557V96.4173L137.885 96.4824Z" fill="#19486F"/>
<path d="M102.559 120.38V176.055C102.559 178.888 112.327 184.097 135.508 184.097C145.152 184.332 154.783 183.236 164.127 180.841C168.751 179.344 172.039 177.586 172.397 176.381V121.032C165.625 125.232 151.657 127.543 137.788 127.543H136.876H132.611H132.025L128.606 126.957H126.848L124.113 126.729L122.648 126.501L119.718 126.111C113.678 125.344 107.848 123.397 102.559 120.38Z" fill="#19486F"/>
<path d="M137.885 88.3754C131.781 88.3494 125.684 88.8067 119.652 89.7428C108.908 91.5335 103.373 94.594 103.373 96.4499C103.373 98.3057 109.071 101.399 119.652 103.124C125.682 104.083 131.78 104.54 137.885 104.492C160.351 104.492 172.56 99.1848 172.56 96.4499C172.56 93.7149 160.351 88.3754 137.885 88.3754Z" fill="#2E73B8"/>
<path d="M102.559 112.241V167.916C102.559 170.748 112.327 175.958 135.508 175.958C145.152 176.192 154.783 175.097 164.127 172.702C168.751 171.204 172.039 169.446 172.397 168.241V112.892C165.625 117.092 151.657 119.404 137.788 119.404H136.876H132.611H132.025L128.606 118.818H126.848L124.113 118.329H122.648L119.718 117.938C113.68 117.182 107.85 115.246 102.559 112.241Z" fill="#2E73B8"/>
<path d="M29.6934 173.06H99.1406V180.19H29.6934C21.8182 180.19 14.2656 177.062 8.697 171.493C3.12842 165.925 1.78516e-05 158.372 1.78516e-05 150.497V143.334C-0.0042608 147.236 0.760625 151.101 2.25094 154.707C3.74125 158.314 5.92777 161.591 8.68548 164.351C11.4432 167.112 14.718 169.302 18.3227 170.797C21.9274 172.291 25.7912 173.06 29.6934 173.06Z" fill="#19486F"/>
<path d="M25.2328 20.9142H35.326L40.1446 44.7144L44.9958 20.9142H55.0564V54.6122H48.9354V27.7189L42.9447 54.6122H37.4423L31.5818 27.7189V54.6122H25.2328V20.9142Z" fill="white"/>
<path d="M58.7681 58.0634C59.3315 58.1088 59.8977 58.1088 60.4611 58.0634C62.8705 58.0634 63.717 56.7285 63.9449 54.482L56.9774 29.2166H63.4891L67.3961 46.7005L70.6519 29.1515H77.1636L71.0426 52.854C68.7635 61.6448 67.2984 62.8495 61.2751 62.8495H58.6378L58.7681 58.0634Z" fill="white"/>
<path d="M87.7451 44.0958V45.0726C87.7451 48.3284 88.6568 50.2494 92.2382 50.2494C92.7888 50.2788 93.3394 50.1904 93.8531 49.99C94.3668 49.7896 94.8318 49.4819 95.217 49.0874C95.6023 48.6929 95.8989 48.2208 96.087 47.7024C96.2752 47.1841 96.3505 46.6316 96.308 46.0819C96.308 43.0214 94.7452 41.8818 90.2521 40.319C84.1963 38.2353 81.4288 35.7283 81.4288 30.1282C81.4288 23.6165 85.4335 20.3607 91.8475 20.3607C98.2615 20.3607 102.266 22.9654 102.266 29.4119V30.4213H95.7545C95.7545 27.1654 94.6801 25.4072 92.0754 25.4072C91.5484 25.3433 91.0138 25.4006 90.5123 25.5748C90.0108 25.7491 89.5558 26.0356 89.182 26.4126C88.8082 26.7895 88.5255 27.2469 88.3555 27.7498C88.1854 28.2527 88.1326 28.7878 88.201 29.3143C88.201 31.398 88.8196 32.5701 91.6847 33.905L96.9266 36.1841C102.038 38.3981 103.438 41.0028 103.438 45.1051C103.438 52.2354 99.108 55.4262 91.7498 55.4262C84.3916 55.4262 81.0381 51.8447 81.0381 45.6586V44.0958H87.7451Z" fill="white"/>
<path d="M125.025 58.7797L121.02 54.6122C120.349 54.8697 119.649 55.0447 118.936 55.1331C118.134 55.1865 117.329 55.1865 116.527 55.1331C106.336 55.1331 105.066 47.8726 105.066 37.6167C105.066 27.3607 106.336 20.1002 116.527 20.1002C126.718 20.1002 127.987 27.3607 127.987 37.6167C128.451 42.3304 127.547 47.078 125.383 51.2912L129.029 54.9703L125.025 58.7797ZM116.527 50.2819C120.532 50.2819 121.183 46.8307 121.183 37.7795C121.183 28.7282 120.532 25.277 116.527 25.277C112.522 25.277 111.838 28.7608 111.838 37.7795C111.838 46.7982 112.522 50.2819 116.527 50.2819Z" fill="white"/>
<path d="M130.983 54.6122V20.9142H137.788V49.0447H149.834V54.6122H130.983Z" fill="white"/>
<path d="M118.839 124.841H129.485L137.039 156.52L144.722 124.841H155.141V167.72H148.63V132.167L139.936 167.72H134.174L125.578 132.167V167.72H118.839V124.841Z" fill="white"/>
</svg>
