<svg width="512" height="512" viewBox="0 0 512 512" fill="none" xmlns="http://www.w3.org/2000/svg">
<g clip-path="url(#clip0_5_35)">
<rect width="512" height="512" rx="256" fill="#333333"/>
<path d="M256 0C114.581 0 0 114.581 0 256C0 397.419 114.581 512 256 512C397.419 512 512 397.419 512 256C512 114.581 397.419 0 256 0ZM256 99.0968C306.168 99.0968 346.839 139.768 346.839 189.935C346.839 240.103 306.168 280.774 256 280.774C205.832 280.774 165.161 240.103 165.161 189.935C165.161 139.768 205.832 99.0968 256 99.0968ZM256 454.194C195.406 454.194 141.11 426.735 104.774 383.794C124.181 347.252 162.168 322.065 206.452 322.065C208.929 322.065 211.406 322.477 213.781 323.2C227.2 327.535 241.239 330.323 256 330.323C270.761 330.323 284.903 327.535 298.219 323.2C300.594 322.477 303.071 322.065 305.548 322.065C349.832 322.065 387.819 347.252 407.226 383.794C370.89 426.735 316.594 454.194 256 454.194Z" fill="#A3BCA5"/>
</g>
<defs>
<clipPath id="clip0_5_35">
<rect width="512" height="512" rx="256" fill="white"/>
</clipPath>
</defs>
</svg>
