<svg width="512" height="512" viewBox="0 0 512 512" fill="none" xmlns="http://www.w3.org/2000/svg">
<g clip-path="url(#clip0_3_10)">
<path d="M435.2 0H76.8C34.3845 0 0 34.3845 0 76.8V435.2C0 477.615 34.3845 512 76.8 512H435.2C477.615 512 512 477.615 512 435.2V76.8C512 34.3845 477.615 0 435.2 0Z" fill="#A3BCA5"/>
<path d="M393.04 128H118.96C96.3384 128 78 146.338 78 168.96V343.04C78 365.662 96.3384 384 118.96 384H393.04C415.662 384 434 365.662 434 343.04V168.96C434 146.338 415.662 128 393.04 128Z" fill="#333333"/>
<path d="M434 128L269 292C262 300 250 300 243 292L78 128M78 384L207 256M434 384L305 256" stroke="#A3BCA5" stroke-width="20"/>
</g>
<defs>
<clipPath id="clip0_3_10">
<rect width="512" height="512" fill="white"/>
</clipPath>
</defs>
</svg>
