<svg width="512" height="512" viewBox="0 0 512 512" fill="none" xmlns="http://www.w3.org/2000/svg">
<g clip-path="url(#clip0_4_32)">
<path d="M435.2 0H76.8C34.3845 0 0 34.3845 0 76.8V435.2C0 477.615 34.3845 512 76.8 512H435.2C477.615 512 512 477.615 512 435.2V76.8C512 34.3845 477.615 0 435.2 0Z" fill="#A3BCA5"/>
<path d="M335 499C349 499 347 516 347 516H165C165 516 163 499 177 499C190 499 193 493 193 487L192 437C121 453 106 409 106 409C94 379 78 372 78 372C54 356 79 356 79 356C105 358 119 382 119 382C141 421 178 410 193 404C195 387 202 376 209 369C152 363 93 341 93 243C93 215 103 192 119 174C116 168 108 142 122 107C122 107 143 100 192 133C234 121 278 121 320 133C369 100 390 107 390 107C404 142 396 168 393 174C409 192 419 215 419 243C419 341 359 363 302 369C312 377 320 393 320 417L319 487C319 493 322 499 335 499Z" fill="#333333"/>
</g>
<defs>
<clipPath id="clip0_4_32">
<rect width="512" height="512" fill="white"/>
</clipPath>
</defs>
</svg>
