<svg width="512" height="512" viewBox="0 0 512 512" fill="none" xmlns="http://www.w3.org/2000/svg">
<g clip-path="url(#clip0_4_22)">
<path d="M435.2 0H76.8C34.3845 0 0 34.3845 0 76.8V435.2C0 477.615 34.3845 512 76.8 512H435.2C477.615 512 512 477.615 512 435.2V76.8C512 34.3845 477.615 0 435.2 0Z" fill="#A3BCA5"/>
<path d="M435.2 0H76.8C34.3845 0 0 34.3845 0 76.8V435.2C0 477.615 34.3845 512 76.8 512H435.2C477.615 512 512 477.615 512 435.2V76.8C512 34.3845 477.615 0 435.2 0Z" fill="#A3BCA5"/>
<path d="M329 102H183C138.265 102 102 138.265 102 183V329C102 373.735 138.265 410 183 410H329C373.735 410 410 373.735 410 329V183C410 138.265 373.735 102 329 102Z" stroke="#333333" stroke-width="30"/>
<path d="M256 328C295.765 328 328 295.765 328 256C328 216.235 295.765 184 256 184C216.235 184 184 216.235 184 256C184 295.765 216.235 328 256 328Z" stroke="#333333" stroke-width="30"/>
<path d="M347 171C350.314 171 353 168.314 353 165C353 161.686 350.314 159 347 159C343.686 159 341 161.686 341 165C341 168.314 343.686 171 347 171Z" stroke="#333333" stroke-width="30"/>
</g>
<defs>
<clipPath id="clip0_4_22">
<rect width="512" height="512" fill="white"/>
</clipPath>
</defs>
</svg>
