<svg width="128" height="128" viewBox="0 0 128 128" fill="none" xmlns="http://www.w3.org/2000/svg">
<g clip-path="url(#clip0_4_14)">
<path d="M118.557 0.000484718H9.44262C6.96688 -0.024711 4.58226 0.933246 2.812 2.66415C1.04174 4.39506 0.030438 6.75754 0 9.2332V118.788C0.0359427 121.26 1.04966 123.617 2.81933 125.343C4.58899 127.07 6.97047 128.025 9.44262 128H118.557C121.033 128.019 123.416 127.058 125.186 125.326C126.955 123.594 127.967 121.232 128 118.756V9.20173C127.956 6.73333 126.939 4.38211 125.171 2.65915C123.403 0.936184 121.026 -0.0192624 118.557 0.000484718Z" fill="#A3BCA5"/>
<path d="M18.9482 47.9792H37.9489V109.114H18.9482V47.9792ZM28.4538 17.5532C30.6331 17.5532 32.7634 18.1995 34.5752 19.4105C36.3871 20.6214 37.7991 22.3426 38.6326 24.3561C39.4661 26.3697 39.6836 28.5853 39.2577 30.7225C38.8318 32.8597 37.7815 34.8226 36.2398 36.3629C34.6981 37.9031 32.7342 38.9515 30.5965 39.3754C28.4589 39.7993 26.2435 39.5796 24.2307 38.7442C22.2179 37.9088 20.4981 36.4952 19.2889 34.6822C18.0796 32.8692 17.4353 30.7382 17.4374 28.559C17.4402 25.6391 18.602 22.8397 20.6677 20.7761C22.7334 18.7124 25.5339 17.5532 28.4538 17.5532Z" fill="#333333"/>
<path d="M49.8675 47.9791H68.0813V56.3725H68.3331C70.8721 51.5673 77.0623 46.4998 86.3056 46.4998C105.548 46.4578 109.115 59.1213 109.115 75.5409V109.114H90.1141V79.3704C90.1141 72.2885 89.9882 63.1711 80.2413 63.1711C70.4944 63.1711 68.8367 70.8931 68.8367 78.9087V109.114H49.8675V47.9791Z" fill="#333333"/>
</g>
<defs>
<clipPath id="clip0_4_14">
<rect width="128" height="128" fill="white"/>
</clipPath>
</defs>
</svg>
